<?xml version="1.0" standalone="no"?>
<svg xmlns:xlink="http://www.w3.org/1999/xlink" id="wave" style="transform:rotate(180deg); transition: 0.3s" viewBox="0 0 1440 490" version="1.1" xmlns="http://www.w3.org/2000/svg"><defs><linearGradient id="sw-gradient-0" x1="0" x2="0" y1="1" y2="0"><stop stop-color="rgba(243, 106, 62, 1)" offset="0%"/><stop stop-color="rgba(255, 179, 11, 1)" offset="100%"/></linearGradient></defs><path style="transform:translate(0, 0px); opacity:1" fill="url(#sw-gradient-0)" d="M0,245L20,212.3C40,180,80,114,120,138.8C160,163,200,278,240,343C280,408,320,425,360,408.3C400,392,440,343,480,302.2C520,261,560,229,600,228.7C640,229,680,261,720,269.5C760,278,800,261,840,220.5C880,180,920,114,960,73.5C1000,33,1040,16,1080,65.3C1120,114,1160,229,1200,228.7C1240,229,1280,114,1320,114.3C1360,114,1400,229,1440,245C1480,261,1520,180,1560,138.8C1600,98,1640,98,1680,130.7C1720,163,1760,229,1800,253.2C1840,278,1880,261,1920,228.7C1960,196,2000,147,2040,106.2C2080,65,2120,33,2160,57.2C2200,82,2240,163,2280,220.5C2320,278,2360,310,2400,334.8C2440,359,2480,376,2520,375.7C2560,376,2600,359,2640,334.8C2680,310,2720,278,2760,228.7C2800,180,2840,114,2860,81.7L2880,49L2880,490L2860,490C2840,490,2800,490,2760,490C2720,490,2680,490,2640,490C2600,490,2560,490,2520,490C2480,490,2440,490,2400,490C2360,490,2320,490,2280,490C2240,490,2200,490,2160,490C2120,490,2080,490,2040,490C2000,490,1960,490,1920,490C1880,490,1840,490,1800,490C1760,490,1720,490,1680,490C1640,490,1600,490,1560,490C1520,490,1480,490,1440,490C1400,490,1360,490,1320,490C1280,490,1240,490,1200,490C1160,490,1120,490,1080,490C1040,490,1000,490,960,490C920,490,880,490,840,490C800,490,760,490,720,490C680,490,640,490,600,490C560,490,520,490,480,490C440,490,400,490,360,490C320,490,280,490,240,490C200,490,160,490,120,490C80,490,40,490,20,490L0,490Z"/></svg>